<?xml version="1.0" encoding="utf-8"?>
<!-- Generator: Adobe Illustrator 18.1.1, SVG Export Plug-In . SVG Version: 6.00 Build 0)  -->
<svg version="1.1" id="Layer_1" xmlns="http://www.w3.org/2000/svg" xmlns:xlink="http://www.w3.org/1999/xlink" x="0px" y="0px"
	 viewBox="0 0 463.3 221.5" enable-background="new 0 0 463.3 221.5" xml:space="preserve">
<g id="Two_Rooms_Logo_Bottom">
	<g>
		<path fill="#570F10" d="M34.3,69.9h46.9c11.6,0,18.9,2.6,23.8,7.5c3,3,5.1,7.3,5.1,13v0.2c0,9.9-6,16-15,19.2
			c10.8,3.1,17.7,8.9,17.7,20.3v0.2c0,13.4-11,23.2-32.2,23.2H34.3V69.9z M82.7,96.8c0-3.7-3-5.7-9-5.7H61.6v11.7h12.2
			c6,0,8.9-2,8.9-5.7V96.8z M75.7,120H61.6v12.4h14c6.1,0,9.2-2.5,9.2-6.1v-0.2C84.8,122.6,81.8,120,75.7,120z"/>
		<path fill="#570F10" d="M117.2,112v-0.2c0-24.3,20-43.7,45.8-43.7c25.9,0,45.6,19.2,45.6,43.4v0.2c0,24.3-20,43.7-45.8,43.7
			C136.9,155.5,117.2,136.3,117.2,112z M180.4,112v-0.2c0-9.9-6.8-18.9-17.6-18.9c-10.7,0-17.4,8.9-17.4,18.7v0.2
			c0,9.9,6.8,18.9,17.6,18.9C173.6,130.7,180.4,121.8,180.4,112z"/>
		<path fill="#570F10" d="M214.3,112v-0.2c0-24.3,20-43.7,45.8-43.7c25.9,0,45.6,19.2,45.6,43.4v0.2c0,24.3-20,43.7-45.8,43.7
			C234.1,155.5,214.3,136.3,214.3,112z M277.5,112v-0.2c0-9.9-6.8-18.9-17.6-18.9c-10.7,0-17.4,8.9-17.4,18.7v0.2
			c0,9.9,6.8,18.9,17.6,18.9C270.8,130.7,277.5,121.8,277.5,112z"/>
		<path fill="#570F10" d="M313.4,69.9h29.2l18,29.4l18-29.4h29.2v83.8h-27.9v-41.5L360.6,142h-0.5l-19.3-29.8v41.5h-27.4V69.9z"/>
	</g>
	<g>
		<path fill="#570F10" d="M40.5,44.7h-7.4v-7.1h23.3v7.1h-7.4v18.1h-8.4V44.7z"/>
		<path fill="#570F10" d="M56.8,37.6h8.8l3.6,12.1l4.1-12.2h7.3l4.1,12.2l3.6-12.1h8.7L88.6,63h-7.3l-4.4-12.5L72.4,63h-7.3
			L56.8,37.6z"/>
		<path fill="#570F10" d="M96.3,50.3L96.3,50.3c0-7.4,6-13.2,13.8-13.2s13.7,5.8,13.7,13.1v0.1c0,7.3-6,13.1-13.8,13.1
			C102.2,63.3,96.3,57.6,96.3,50.3z M115.3,50.3L115.3,50.3c0-3.1-2.1-5.8-5.3-5.8c-3.2,0-5.2,2.7-5.2,5.6v0.1c0,3,2.1,5.7,5.3,5.7
			C113.3,55.9,115.3,53.2,115.3,50.3z"/>
		<path fill="#570F10" d="M135.3,37.6h12.3c4.5,0,7.3,1.1,9.1,2.9c1.5,1.5,2.3,3.4,2.3,6v0.1c0,3.7-1.9,6.2-5,7.7l5.9,8.6h-9.6
			l-4.8-7.2h-1.8v7.2h-8.4V37.6z M147.4,49.6c2,0,3.2-0.9,3.2-2.4v-0.1c0-1.6-1.3-2.4-3.2-2.4h-3.7v4.9H147.4z"/>
		<path fill="#570F10" d="M160.5,50.3L160.5,50.3c0-7.4,6-13.2,13.8-13.2c7.8,0,13.7,5.8,13.7,13.1v0.1c0,7.3-6,13.1-13.8,13.1
			C166.4,63.3,160.5,57.6,160.5,50.3z M179.5,50.3L179.5,50.3c0-3.1-2.1-5.8-5.3-5.8c-3.2,0-5.2,2.7-5.2,5.6v0.1
			c0,3,2.1,5.7,5.3,5.7C177.5,55.9,179.5,53.2,179.5,50.3z"/>
		<path fill="#570F10" d="M189.7,50.3L189.7,50.3c0-7.4,6-13.2,13.8-13.2c7.8,0,13.7,5.8,13.7,13.1v0.1c0,7.3-6,13.1-13.8,13.1
			C195.7,63.3,189.7,57.6,189.7,50.3z M208.7,50.3L208.7,50.3c0-3.1-2.1-5.8-5.3-5.8c-3.2,0-5.2,2.7-5.2,5.6v0.1
			c0,3,2.1,5.7,5.3,5.7C206.7,55.9,208.7,53.2,208.7,50.3z"/>
		<path fill="#570F10" d="M219.6,37.6h8.8l5.4,8.9l5.4-8.9h8.8v25.2h-8.4V50.3l-5.8,9h-0.1l-5.8-9v12.5h-8.2V37.6z"/>
		<path fill="#570F10" d="M248.7,59l4.5-5.4c2.7,2.1,5.9,3,8.8,3c1.5,0,2.2-0.4,2.2-1.1v-0.1c0-0.7-0.8-1.1-3.5-1.7
			c-5.7-1.2-10.6-2.8-10.6-8.1v-0.1c0-4.8,3.7-8.5,10.7-8.5c4.9,0,8.5,1.2,11.4,3.5l-4.1,5.7c-2.4-1.7-5.2-2.5-7.6-2.5
			c-1.3,0-1.8,0.4-1.8,1v0.1c0,0.7,0.7,1.1,3.4,1.6c6.4,1.2,10.8,3.1,10.8,8.1v0.1c0,5.3-4.4,8.5-11.1,8.5
			C256.6,63.3,251.9,61.8,248.7,59z"/>
		<path fill="#570F10" d="M294.6,37.4h4.1l11.1,25.4h-4.7l-2.6-6.1h-11.9l-2.6,6.1h-4.5L294.6,37.4z M301,52.8l-4.4-10.1l-4.3,10.1
			H301z"/>
		<path fill="#570F10" d="M314.2,37.6h4.1L331.8,55V37.6h4.4v25.2h-3.7l-13.9-17.9v17.9h-4.4V37.6z"/>
		<path fill="#570F10" d="M342.6,37.6h9.4c7.9,0,13.4,5.4,13.4,12.5v0.1c0,7.1-5.5,12.6-13.4,12.6h-9.4V37.6z M347.1,41.6v17.1h5
			c5.3,0,8.8-3.6,8.8-8.5v-0.1c0-4.9-3.5-8.6-8.8-8.6H347.1z"/>
		<path fill="#570F10" d="M390.6,37.4h4.1l11.1,25.4h-4.7l-2.6-6.1h-11.9l-2.6,6.1h-4.5L390.6,37.4z M396.9,52.8l-4.4-10.1
			l-4.3,10.1H396.9z"/>
	</g>
	<g>
		<g>
			<path fill="#570F10" d="M432.6,163.3h-3.3v-1.2h7.9v1.2H434v9.6h-1.4V163.3z"/>
		</g>
		<g>
			<path fill="#570F10" d="M447.5,168.2c-0.1-1.5-0.2-3.3-0.2-4.6h0c-0.4,1.3-0.8,2.6-1.4,4.1l-1.9,5.2h-1l-1.7-5.1
				c-0.5-1.5-0.9-2.9-1.2-4.2h0c0,1.3-0.1,3.1-0.2,4.8l-0.3,4.6h-1.3l0.8-10.7h1.8l1.8,5.2c0.4,1.3,0.8,2.5,1.1,3.6h0
				c0.3-1.1,0.7-2.3,1.1-3.6l1.9-5.2h1.8l0.7,10.7h-1.4L447.5,168.2z"/>
		</g>
	</g>
	<g>
		<path fill="#570F10" d="M18.2,188h7.3c1.8,0,3.2,0.5,4.1,1.4c0.7,0.7,1.1,1.6,1.1,2.7v0c0,1.8-0.9,2.8-2.1,3.4
			c1.8,0.7,2.9,1.7,2.9,3.8v0c0,2.9-2.3,4.3-5.9,4.3h-7.5V188z M27.2,192.6c0-1-0.8-1.6-2.3-1.6h-3.4v3.3h3.2
			C26.2,194.3,27.2,193.8,27.2,192.6L27.2,192.6z M25.5,197.2h-4v3.4h4.1c1.5,0,2.4-0.5,2.4-1.7v0C28.1,197.8,27.3,197.2,25.5,197.2
			z"/>
		<path fill="#570F10" d="M38.1,197.5l-6-9.5h4l3.7,6.3l3.8-6.3h3.9l-6,9.4v6.2h-3.4V197.5z"/>
		<path fill="#570F10" d="M61.8,187.9H65l6.7,15.8h-3.6l-1.4-3.5H60l-1.4,3.5h-3.5L61.8,187.9z M65.4,197.1l-2.1-5.1l-2.1,5.1H65.4z
			"/>
		<path fill="#570F10" d="M74.1,188h3.4v12.5h7.8v3.1H74.1V188z"/>
		<path fill="#570F10" d="M93.3,187.9h3.2l6.7,15.8h-3.6l-1.4-3.5h-6.6l-1.4,3.5h-3.5L93.3,187.9z M97,197.1l-2.1-5.1l-2.1,5.1H97z"
			/>
		<path fill="#570F10" d="M105.6,188h3.2l7.3,9.6V188h3.4v15.7h-2.9l-7.6-10v10h-3.4V188z"/>
		<path fill="#570F10" d="M129.4,195.8L129.4,195.8c0-4.5,3.5-8.1,8.2-8.1c2.8,0,4.5,0.8,6.2,2.1l-2.2,2.6c-1.2-1-2.3-1.6-4.1-1.6
			c-2.5,0-4.5,2.2-4.5,4.9v0c0,2.9,2,5,4.7,5c1.3,0,2.4-0.3,3.2-0.9v-2.2h-3.5v-3h6.8v6.8c-1.6,1.4-3.8,2.5-6.7,2.5
			C132.7,203.9,129.4,200.5,129.4,195.8z"/>
		<path fill="#570F10" d="M147.6,188h11.8v3.1H151v3.2h7.4v3.1H151v3.3h8.5v3.1h-11.9V188z"/>
		<path fill="#570F10" d="M162.6,188h7.2c2,0,3.5,0.6,4.6,1.6c0.9,0.9,1.3,2.1,1.3,3.6v0c0,2.5-1.4,4.1-3.4,4.9l3.8,5.6h-4l-3.4-5
			h-2.7v5h-3.4V188z M169.5,195.6c1.7,0,2.6-0.9,2.6-2.2v0c0-1.5-1-2.2-2.7-2.2h-3.4v4.5H169.5z"/>
		<path fill="#570F10" d="M178.8,188h6.1c4.9,0,8.3,3.4,8.3,7.8v0c0,4.4-3.4,7.8-8.3,7.8h-6.1V188z M182.2,191.1v9.4h2.7
			c2.8,0,4.7-1.9,4.7-4.7v0c0-2.8-1.9-4.7-4.7-4.7H182.2z"/>
		<path fill="#570F10" d="M196.5,188h3.4v15.7h-3.4V188z"/>
		<path fill="#570F10" d="M203.8,188h3.2l7.3,9.6V188h3.4v15.7h-2.9l-7.6-10v10h-3.4V188z"/>
		<path fill="#570F10" d="M220.8,195.8L220.8,195.8c0-4.5,3.5-8.1,8.2-8.1c2.8,0,4.5,0.8,6.2,2.1l-2.2,2.6c-1.2-1-2.3-1.6-4.1-1.6
			c-2.5,0-4.5,2.2-4.5,4.9v0c0,2.9,2,5,4.7,5c1.3,0,2.4-0.3,3.2-0.9v-2.2h-3.5v-3h6.8v6.8c-1.6,1.4-3.8,2.5-6.7,2.5
			C224.2,203.9,220.8,200.5,220.8,195.8z"/>
		<path fill="#570F10" d="M254.5,202.1c-1.3,1.1-2.8,1.7-4.6,1.7c-3,0-5.3-1.7-5.3-4.5v0c0-2,1.1-3.4,3-4.3
			c-0.8-1.1-1.1-2.1-1.1-3.1v0c0-2.1,1.7-4.1,4.7-4.1c2.7,0,4.4,1.7,4.4,3.9v0c0,2.1-1.3,3.3-3.3,4.1l2.1,2.1c0.5-0.8,1-1.7,1.5-2.7
			l2.5,1.4c-0.6,1.1-1.3,2.3-2.1,3.3l2.3,2.3l-2.5,1.8L254.5,202.1z M252.6,200.1l-3-3c-1,0.5-1.5,1.3-1.5,2.1v0
			c0,1.1,0.9,1.8,2.2,1.8C251.1,201,251.9,200.7,252.6,200.1z M252.8,191.9L252.8,191.9c0-0.9-0.6-1.5-1.5-1.5
			c-0.9,0-1.5,0.6-1.5,1.6v0c0,0.7,0.3,1.2,0.9,1.9C252,193.4,252.8,192.9,252.8,191.9z"/>
		<path fill="#570F10" d="M267,201.4l2-2.4c1.4,1.2,2.9,1.9,4.7,1.9c1.4,0,2.3-0.6,2.3-1.5v0c0-0.9-0.5-1.3-3.2-2
			c-3.2-0.8-5.2-1.7-5.2-4.8v0c0-2.8,2.3-4.7,5.5-4.7c2.3,0,4.2,0.7,5.8,2l-1.8,2.6c-1.4-1-2.8-1.5-4.1-1.5c-1.3,0-2,0.6-2,1.4v0
			c0,1,0.7,1.4,3.4,2.1c3.2,0.8,5,2,5,4.7v0c0,3.1-2.4,4.9-5.8,4.9C271.3,203.9,268.9,203,267,201.4z"/>
		<path fill="#570F10" d="M282.4,188h11.8v3.1h-8.4v3.2h7.4v3.1h-7.4v3.3h8.5v3.1h-11.9V188z"/>
		<path fill="#570F10" d="M302.8,187.9h3.2l6.7,15.8h-3.6l-1.4-3.5H301l-1.4,3.5h-3.5L302.8,187.9z M306.4,197.1l-2.1-5.1l-2.1,5.1
			H306.4z"/>
		<path fill="#570F10" d="M315.1,188h3.2l7.3,9.6V188h3.4v15.7h-2.9l-7.6-10v10h-3.4V188z"/>
		<path fill="#570F10" d="M339.5,188h3.7l4.1,6.6l4.1-6.6h3.7v15.7h-3.4v-10.2l-4.4,6.7h-0.1l-4.4-6.6v10.2h-3.4V188z"/>
		<path fill="#570F10" d="M358.2,195.8L358.2,195.8c0-4.5,3.4-8.1,8.2-8.1c3,0,4.7,1,6.2,2.4l-2.2,2.5c-1.2-1.1-2.4-1.8-4-1.8
			c-2.6,0-4.5,2.2-4.5,4.9v0c0,2.7,1.9,4.9,4.5,4.9c1.8,0,2.9-0.7,4.1-1.8l2.2,2.2c-1.6,1.7-3.4,2.8-6.4,2.8
			C361.7,203.9,358.2,200.3,358.2,195.8z"/>
		<path fill="#570F10" d="M374.3,195.8L374.3,195.8c0-4.5,3.4-8.1,8.2-8.1c3,0,4.7,1,6.2,2.4l-2.2,2.5c-1.2-1.1-2.4-1.8-4-1.8
			c-2.6,0-4.5,2.2-4.5,4.9v0c0,2.7,1.9,4.9,4.5,4.9c1.8,0,2.9-0.7,4.1-1.8l2.2,2.2c-1.6,1.7-3.4,2.8-6.4,2.8
			C377.7,203.9,374.3,200.3,374.3,195.8z"/>
		<path fill="#570F10" d="M390.4,195.8L390.4,195.8c0-4.5,3.5-8.1,8.3-8.1c4.8,0,8.3,3.6,8.3,8.1v0c0,4.5-3.5,8.1-8.3,8.1
			C393.9,203.9,390.4,200.3,390.4,195.8z M403.4,195.8L403.4,195.8c0-2.7-2-5-4.7-5c-2.8,0-4.7,2.2-4.7,4.9v0c0,2.7,2,4.9,4.7,4.9
			C401.5,200.7,403.4,198.5,403.4,195.8z"/>
		<path fill="#570F10" d="M413.2,197.5l-6-9.5h4l3.7,6.3l3.8-6.3h3.9l-6,9.4v6.2h-3.4V197.5z"/>
	</g>
	<path fill="#EC202A" d="M423.4,173.2H16.2V18.1h407.1V173.2z M18.8,170.6h401.9V20.7H18.8V170.6z"/>
</g>
</svg>
